<svg xmlns="http://www.w3.org/2000/svg" width="20.12" height="20.12" viewBox="0 0 20.12 20.12">
  <g id="add" transform="translate(0)">
    <g id="Сгруппировать_524" data-name="Сгруппировать 524" transform="translate(0)">
      <g id="Сгруппировать_523" data-name="Сгруппировать 523">
        <path id="Контур_360" data-name="Контур 360" d="M14.445,10.1a10.225,10.225,0,0,0-1.183-.475,5.344,5.344,0,1,0-6.4,0A10.222,10.222,0,0,0,.051,17.24a2.388,2.388,0,0,0,2.334,2.88h9.679a.786.786,0,0,0,0-1.572H2.385a.8.8,0,0,1-.629-.3.821.821,0,0,1-.166-.688,8.683,8.683,0,0,1,8.262-6.876q.1,0,.208,0t.21,0a8.561,8.561,0,0,1,3.5.831.786.786,0,0,0,.675-1.42Zm-4.193-.984-.192,0-.19,0a3.772,3.772,0,1,1,.382,0Z" transform="translate(0)" fill="#fff"/>
      </g>
    </g>
    <g id="Сгруппировать_526" data-name="Сгруппировать 526" transform="translate(12.654 12.653)">
      <g id="Сгруппировать_525" data-name="Сгруппировать 525">
        <path id="Контур_361" data-name="Контур 361" d="M328.68,324.947h-2.161v-2.161a.786.786,0,0,0-1.572,0v2.161h-2.161a.786.786,0,0,0,0,1.572h2.161v2.161a.786.786,0,1,0,1.572,0v-2.161h2.161a.786.786,0,1,0,0-1.572Z" transform="translate(-322 -322)" fill="#fff"/>
      </g>
    </g>
  </g>
</svg>
