<svg xmlns="http://www.w3.org/2000/svg" width="23.017" height="22.961" viewBox="0 0 23.017 22.961">
  <path id="address" d="M9.193,20.615v2.331l-.564-.455a37.789,37.789,0,0,1-4.261-4.165C1.47,15,0,12.01,0,9.446V9.192a9.193,9.193,0,1,1,18.386,0v.254c0,.215-.011.434-.032.655l-1.8-1.64a7.4,7.4,0,0,0-14.763.731v.254c0,4.332,5.582,9.576,7.4,11.169Zm5.516-1.288H17.4V16.636H14.709ZM9.193,5.38A3.812,3.812,0,1,1,5.381,9.192,3.816,3.816,0,0,1,9.193,5.38Zm0,1.794a2.018,2.018,0,1,0,2.018,2.018A2.02,2.02,0,0,0,9.193,7.174ZM21.808,18.108l-.5-.46v2.88a2.435,2.435,0,0,1-2.432,2.432H13.192a2.435,2.435,0,0,1-2.432-2.432v-2.88l-.5.46L9.047,16.783l6.985-6.372,6.985,6.372Zm-2.3-2.1-3.478-3.173-3.478,3.173v4.516a.639.639,0,0,0,.638.638h5.679a.639.639,0,0,0,.638-.638Zm0,0" transform="translate(0 0.001)" fill="#fff"/>
</svg>
