<svg xmlns="http://www.w3.org/2000/svg" width="23.937" height="23.484" viewBox="0 0 23.937 23.484">
  <g id="bag" transform="translate(0.152 -3.885)">
    <g id="Сгруппировать_541" data-name="Сгруппировать 541" transform="translate(0 4.035)">
      <g id="Сгруппировать_540" data-name="Сгруппировать 540" transform="translate(0)">
        <path id="Контур_365" data-name="Контур 365" d="M23.482,11.909a.525.525,0,0,0-.437-.146h-6.27V8.993a4.958,4.958,0,0,0-9.915,0v2.77H.589c-.175,0-.35,0-.437.146a.5.5,0,0,0-.146.437L2.193,24.3a3.558,3.558,0,0,0,3.441,2.916H18a3.587,3.587,0,0,0,3.441-2.945l2.187-11.927A.5.5,0,0,0,23.482,11.909ZM8.026,8.993a3.791,3.791,0,0,1,7.582,0v2.77H8.026ZM20.274,24.128A2.333,2.333,0,0,1,18,26.053H5.635A2.333,2.333,0,0,1,3.36,24.128L1.289,12.93H22.345Z" transform="translate(0 -4.035)" fill="#fff" stroke="#fff" stroke-width="0.3"/>
        <path id="Контур_366" data-name="Контур 366" d="M280.21,215.93a.583.583,0,0,0,.583-.583V213.6a.583.583,0,0,0-1.167,0v1.75A.583.583,0,0,0,280.21,215.93Z" transform="translate(-264.019 -201.349)" fill="#fff" stroke="#fff" stroke-width="0.3"/>
        <path id="Контур_367" data-name="Контур 367" d="M123.475,215.93a.583.583,0,0,0,.583-.583V213.6a.583.583,0,1,0-1.166,0v1.75A.583.583,0,0,0,123.475,215.93Z" transform="translate(-116.032 -201.349)" fill="#fff" stroke="#fff" stroke-width="0.3"/>
      </g>
    </g>
  </g>
</svg>
