<svg xmlns="http://www.w3.org/2000/svg" width="18.521" height="23.407" viewBox="0 0 18.521 23.407">
  <path id="bell" d="M71.573,18.627a3.637,3.637,0,0,1-1.105-1.5,17.413,17.413,0,0,1-1.152-6.881c0-.009,0-.018,0-.026a6.641,6.641,0,0,0-3.909-6.023V2.607A2.608,2.608,0,0,0,62.8,0h-.216a2.608,2.608,0,0,0-2.6,2.607V4.192a6.641,6.641,0,0,0-3.91,6.05,17.413,17.413,0,0,1-1.152,6.881,3.637,3.637,0,0,1-1.105,1.5.667.667,0,0,0-.366.758.7.7,0,0,0,.688.536h5.026a3.531,3.531,0,0,0,7.061,0h5.026a.7.7,0,0,0,.688-.536A.667.667,0,0,0,71.573,18.627ZM61.355,2.607a1.234,1.234,0,0,1,1.232-1.234H62.8a1.234,1.234,0,0,1,1.232,1.234V3.747a6.642,6.642,0,0,0-2.679,0V2.607Zm1.34,19.426a2.164,2.164,0,0,1-2.159-2.112h4.318A2.164,2.164,0,0,1,62.695,22.033Zm2.761-3.485H55.7a7.189,7.189,0,0,0,.359-.631,17.362,17.362,0,0,0,1.385-7.675,5.249,5.249,0,1,1,10.5,0q0,.013,0,.025a17.327,17.327,0,0,0,1.385,7.648,7.192,7.192,0,0,0,.359.631Z" transform="translate(-53.434 0)" fill="#ea2f55"/>
</svg>
