<svg xmlns="http://www.w3.org/2000/svg" width="22.659" height="19.104" viewBox="0 0 22.659 19.104">
  <g id="book_2_" data-name="book (2)" transform="translate(0 -40.166)">
    <path id="Контур_370" data-name="Контур 370" d="M22,44.432h-2.18v-3.6a.664.664,0,0,0-.961-.594L11.329,44,3.8,40.236a.664.664,0,0,0-.961.594v3.6H.664A.664.664,0,0,0,0,45.1v13.51a.664.664,0,0,0,.664.664H22a.664.664,0,0,0,.664-.664V45.1A.664.664,0,0,0,22,44.432ZM1.328,57.942V45.76H2.844V54.7a.664.664,0,0,0,.367.594l5.306,2.653Zm9.338-.41L4.172,54.285V41.9l6.494,3.247Zm1.328-12.381L18.487,41.9V54.285l-6.494,3.247Zm9.338,12.791h-7.19l5.306-2.653a.664.664,0,0,0,.367-.594V45.76h1.517Z" transform="translate(0)" fill="#fff"/>
    <path id="Контур_371" data-name="Контур 371" d="M128.9,151.88l2.133,1.067a.664.664,0,1,0,.594-1.188l-2.133-1.067a.664.664,0,0,0-.594,1.188Z" transform="translate(-122.842 -105.567)" fill="#fff"/>
    <path id="Контур_372" data-name="Контур 372" d="M128.9,230.206l2.133,1.067a.664.664,0,1,0,.594-1.187l-2.133-1.067a.664.664,0,1,0-.594,1.187Z" transform="translate(-122.842 -180.427)" fill="#fff"/>
    <path id="Контур_373" data-name="Контур 373" d="M128.9,308.53l2.133,1.067a.664.664,0,1,0,.594-1.187l-2.133-1.067a.664.664,0,1,0-.594,1.188Z" transform="translate(-122.842 -255.285)" fill="#fff"/>
    <path id="Контур_374" data-name="Контур 374" d="M307.764,150.692l-2.133,1.067a.664.664,0,0,0,.594,1.188l2.133-1.067a.664.664,0,1,0-.594-1.188Z" transform="translate(-291.754 -105.567)" fill="#fff"/>
    <path id="Контур_375" data-name="Контур 375" d="M307.764,229.017l-2.133,1.067a.664.664,0,0,0,.594,1.187l2.133-1.067a.664.664,0,1,0-.594-1.187Z" transform="translate(-291.754 -180.426)" fill="#fff"/>
    <path id="Контур_376" data-name="Контур 376" d="M307.764,307.342l-2.133,1.067a.664.664,0,0,0,.594,1.188l2.133-1.067a.664.664,0,1,0-.594-1.187Z" transform="translate(-291.754 -255.285)" fill="#fff"/>
  </g>
</svg>
