<svg xmlns="http://www.w3.org/2000/svg" width="19.025" height="21.742" viewBox="0 0 19.025 21.742">
  <g id="book_1_" data-name="book (1)" transform="translate(-1)">
    <path id="Контур_83" data-name="Контур 83" d="M19.345,21.742H3.491A2.493,2.493,0,0,1,1,19.251V2.491A2.493,2.493,0,0,1,3.491,0H17.533a.68.68,0,0,1,.679.679V3.624h1.132a.68.68,0,0,1,.679.679v16.76A.68.68,0,0,1,19.345,21.742ZM2.359,4.71V19.251a1.134,1.134,0,0,0,1.132,1.132H18.666V4.983H3.491A2.467,2.467,0,0,1,2.359,4.71ZM3.491,1.359a1.132,1.132,0,1,0,0,2.265H16.854V1.359Z" fill="#fff"/>
    <path id="Контур_84" data-name="Контур 84" d="M11.568,17.66a.685.685,0,0,1-.357-.1L8.624,15.966,6.036,17.559A.68.68,0,0,1,5,16.98V4.75H6.359V15.764L8.267,14.59a.682.682,0,0,1,.713,0l1.908,1.174V4.75h1.36V16.98a.679.679,0,0,1-.679.679Z" transform="translate(-0.376 -0.447)" fill="#fff"/>
  </g>
</svg>
