<svg xmlns="http://www.w3.org/2000/svg" width="17.897" height="22.753" viewBox="0 0 17.897 22.753">
  <g id="clipboard" transform="translate(-46.987 0.051)">
    <g id="Сгруппировать_522" data-name="Сгруппировать 522" transform="translate(47.037 0)">
      <g id="Сгруппировать_521" data-name="Сгруппировать 521" transform="translate(0 0)">
        <path id="Контур_353" data-name="Контур 353" d="M62.569,2.968H60.519V2.051c0-.3-.324-.431-.62-.431H58.308A2.412,2.412,0,0,0,55.909,0a2.454,2.454,0,0,0-2.4,1.618H51.945c-.3,0-.593.135-.593.431v.917H49.3a2.292,2.292,0,0,0-2.265,2.184V20.6A2.17,2.17,0,0,0,49.3,22.652H62.569A2.17,2.17,0,0,0,64.834,20.6V5.152A2.292,2.292,0,0,0,62.569,2.968ZM52.43,2.7h1.483a.593.593,0,0,0,.512-.485A1.564,1.564,0,0,1,55.909,1a1.537,1.537,0,0,1,1.456,1.213A.593.593,0,0,0,57.9,2.7h1.537V4.856H52.43ZM63.755,20.6a1.094,1.094,0,0,1-1.186.971H49.3a1.094,1.094,0,0,1-1.186-.971V5.152A1.213,1.213,0,0,1,49.3,4.047h2.049V5.422a.566.566,0,0,0,.593.512H59.9a.593.593,0,0,0,.62-.512V4.047h2.049a1.213,1.213,0,0,1,1.186,1.106V20.6Z" transform="translate(-47.037 0)" fill="#fff" stroke="#fff" stroke-width="0.1"/>
        <path id="Контур_354" data-name="Контур 354" d="M102.746,230.452,101.02,232.1l-.728-.755a.539.539,0,0,0-.755-.027.566.566,0,0,0,0,.782l1.106,1.133a.485.485,0,0,0,.377.162.539.539,0,0,0,.378-.162l2.1-2,.031-.031a.512.512,0,0,0-.031-.724A.539.539,0,0,0,102.746,230.452Z" transform="translate(-96.679 -218.424)" fill="#fff" stroke="#fff" stroke-width="0.1"/>
        <path id="Контур_355" data-name="Контур 355" d="M205.289,256.034h-6.2a.539.539,0,0,0,0,1.079h6.2a.539.539,0,1,0,0-1.079Z" transform="translate(-190.728 -242.819)" fill="#fff" stroke="#fff" stroke-width="0.1"/>
        <path id="Контур_356" data-name="Контур 356" d="M205.289,172.442h-6.2a.539.539,0,0,0,0,1.079h6.2a.539.539,0,1,0,0-1.079Z" transform="translate(-190.728 -163.542)" fill="#fff" stroke="#fff" stroke-width="0.1"/>
        <path id="Контур_357" data-name="Контур 357" d="M102.746,314.044l-1.726,1.645-.728-.755a.539.539,0,0,0-.755-.027.566.566,0,0,0,0,.782l1.106,1.133a.485.485,0,0,0,.377.162.539.539,0,0,0,.378-.162l2.1-2,.031-.031a.512.512,0,0,0-.031-.724A.539.539,0,0,0,102.746,314.044Z" transform="translate(-96.679 -297.702)" fill="#fff" stroke="#fff" stroke-width="0.1"/>
        <path id="Контур_358" data-name="Контур 358" d="M205.289,339.626h-6.2a.539.539,0,0,0,0,1.079h6.2a.539.539,0,1,0,0-1.079Z" transform="translate(-190.728 -322.097)" fill="#fff" stroke="#fff" stroke-width="0.1"/>
        <path id="Контур_359" data-name="Контур 359" d="M97.718,147.176h3.264a.512.512,0,0,0,.484-.539v-2.912a.539.539,0,0,0-.539-.539H97.718a.539.539,0,0,0-.539.539v2.912a.525.525,0,0,0,0,.055A.512.512,0,0,0,97.718,147.176Zm.539-2.912h2.13V146.1h-2.13Z" transform="translate(-94.59 -135.795)" fill="#fff" stroke="#fff" stroke-width="0.1"/>
      </g>
    </g>
  </g>
</svg>
