<svg id="google_1_" data-name="google (1)" xmlns="http://www.w3.org/2000/svg" width="20.829" height="20.829" viewBox="0 0 20.829 20.829">
  <path id="Контур_56" data-name="Контур 56" d="M252.984,198.44a10.389,10.389,0,0,0-.183-1.945.61.61,0,0,0-.6-.5H242.61a.61.61,0,0,0-.61.61v3.661a.61.61,0,0,0,.61.61h4.921a5.464,5.464,0,0,1-1.225,1.612l3.449,3.449A10.336,10.336,0,0,0,252.984,198.44Z" transform="translate(-232.155 -188.025)" fill="#ea2f55"/>
  <path id="Контур_57" data-name="Контур 57" d="M53.261,4.882a5.437,5.437,0,0,1,3.293,1.1.609.609,0,0,0,.8-.057l2.6-2.6a.61.61,0,0,0-.039-.9A10.363,10.363,0,0,0,44.663,4.575l3.582,3.582a5.494,5.494,0,0,1,5.016-3.275Z" transform="translate(-42.846 0)" fill="#ea2f55"/>
  <path id="Контур_58" data-name="Контур 58" d="M53.261,319.657a10.306,10.306,0,0,0,6.208-2.082l-3.514-3.514a5.467,5.467,0,0,1-7.71-2.561l-3.582,3.582A10.372,10.372,0,0,0,53.261,319.657Z" transform="translate(-42.846 -298.828)" fill="#ea2f55"/>
  <path id="Контур_59" data-name="Контур 59" d="M4.971,145.858a4.392,4.392,0,0,1,0-1.758l-3.829-3.829a10.279,10.279,0,0,0,0,9.416Z" transform="translate(0 -134.564)" fill="#ea2f55"/>
</svg>
