<svg xmlns="http://www.w3.org/2000/svg" width="20.934" height="20.934" viewBox="0 0 20.934 20.934">
  <g id="growth" transform="translate(-0.004)">
    <path id="Контур_368" data-name="Контур 368" d="M7.617,194.765H6.682a3.131,3.131,0,1,0-3.379,0H2.367A2.37,2.37,0,0,0,0,197.136v4.457a.613.613,0,0,0,1.227,0v-4.457a1.142,1.142,0,0,1,1.137-1.145H4.143l-1.026,2.622a.613.613,0,0,0,.086.6l1.3,1.689a.613.613,0,0,0,.971,0l1.3-1.689a.613.613,0,0,0,.086-.6l-1.026-2.622H7.617a1.142,1.142,0,0,1,1.137,1.145v4.457a.613.613,0,0,0,1.227,0v-4.457A2.37,2.37,0,0,0,7.617,194.765Zm-2.625-4.538a1.9,1.9,0,1,1-1.9,1.9A1.907,1.907,0,0,1,4.992,190.227Zm0,9.3-.606-.785.606-1.549.606,1.549Z" transform="translate(0 -181.272)" fill="#fff"/>
    <path id="Контур_369" data-name="Контур 369" d="M238.523,6.76,233.31.231a.613.613,0,0,0-.959,0L227.138,6.76a.613.613,0,0,0,.479,1h1.8V20.321a.613.613,0,0,0,.613.613h5.6a.613.613,0,0,0,.613-.613V7.756h1.8a.613.613,0,0,0,.479-1Zm-2.892-.231a.613.613,0,0,0-.613.613V19.707h-4.375V7.142a.613.613,0,0,0-.613-.613h-1.138L232.831,1.6l3.939,4.933Z" transform="translate(-217.719)" fill="#fff"/>
  </g>
</svg>
