<svg xmlns="http://www.w3.org/2000/svg" width="21.888" height="19.496" viewBox="0 0 21.888 19.496">
  <path id="heart" d="M10.844,19.3a1.272,1.272,0,0,1-.838-.315c-.876-.766-1.721-1.486-2.466-2.121l0,0A45.864,45.864,0,0,1,2.151,11.8,8.073,8.073,0,0,1,0,6.518a6.779,6.779,0,0,1,1.721-4.63A5.832,5.832,0,0,1,6.059,0,5.455,5.455,0,0,1,9.466,1.176a6.972,6.972,0,0,1,1.378,1.439,6.973,6.973,0,0,1,1.378-1.439A5.455,5.455,0,0,1,15.63,0a5.832,5.832,0,0,1,4.338,1.888,6.779,6.779,0,0,1,1.72,4.63A8.071,8.071,0,0,1,19.537,11.8a45.859,45.859,0,0,1-5.384,5.054c-.747.636-1.593,1.357-2.471,2.125a1.273,1.273,0,0,1-.838.315ZM6.059,1.271a4.576,4.576,0,0,0-3.4,1.479A5.514,5.514,0,0,0,1.27,6.518a6.792,6.792,0,0,0,1.859,4.473,45.134,45.134,0,0,0,5.23,4.9l0,0c.748.638,1.6,1.36,2.479,2.132.888-.773,1.737-1.5,2.487-2.136a45.145,45.145,0,0,0,5.23-4.9,6.793,6.793,0,0,0,1.859-4.473A5.514,5.514,0,0,0,19.034,2.75a4.575,4.575,0,0,0-3.4-1.479A4.214,4.214,0,0,0,13,2.181a6.165,6.165,0,0,0-1.466,1.7.8.8,0,0,1-1.378,0,6.159,6.159,0,0,0-1.466-1.7,4.213,4.213,0,0,0-2.63-.911Zm0,0" transform="translate(0.1 0.1)" fill="#fff" stroke="#fff" stroke-width="0.2"/>
</svg>
