<svg xmlns="http://www.w3.org/2000/svg" width="22.869" height="22.871" viewBox="0 0 22.869 22.871">
  <path id="home" d="M22.755,9.947l0,0L13.423.616a2.105,2.105,0,0,0-2.978,0L1.121,9.941l-.009.01a2.1,2.1,0,0,0,1.4,3.587c.022,0,.043,0,.065,0h.372v6.866a2.467,2.467,0,0,0,2.464,2.464h3.65a.67.67,0,0,0,.67-.67V16.818a1.126,1.126,0,0,1,1.124-1.124h2.153a1.125,1.125,0,0,1,1.124,1.124V22.2a.67.67,0,0,0,.67.67h3.65a2.467,2.467,0,0,0,2.464-2.464V13.541h.345a2.106,2.106,0,0,0,1.49-3.594Zm-.949,2.029a.761.761,0,0,1-.541.224H20.25a.67.67,0,0,0-.67.67v7.536a1.125,1.125,0,0,1-1.124,1.124h-2.98V16.818a2.467,2.467,0,0,0-2.464-2.464H10.858a2.467,2.467,0,0,0-2.465,2.464v4.713H5.413a1.126,1.126,0,0,1-1.124-1.124V12.871a.67.67,0,0,0-.67-.67H2.59a.765.765,0,0,1-.527-1.306h0l9.329-9.329a.765.765,0,0,1,1.082,0L21.8,10.891l0,0a.767.767,0,0,1,0,1.081Zm0,0" transform="translate(-0.5 0.001)" fill="#fff"/>
</svg>
