<svg xmlns="http://www.w3.org/2000/svg" width="19.03" height="18.967" viewBox="0 0 19.03 18.967">
  <g id="logout" transform="translate(-49 8.15)">
    <g id="Сгруппировать_415" data-name="Сгруппировать 415">
      <g id="Сгруппировать_412" data-name="Сгруппировать 412" transform="translate(49 -8.15)">
        <g id="Сгруппировать_411" data-name="Сгруппировать 411" transform="translate(0 0)">
          <path id="Контур_349" data-name="Контур 349" d="M9.484,18.236H2.371a.791.791,0,0,1-.79-.79V3.221a.791.791,0,0,1,.79-.79H9.484a.79.79,0,0,0,0-1.581H2.371A2.374,2.374,0,0,0,0,3.221V17.446a2.374,2.374,0,0,0,2.371,2.371H9.484a.79.79,0,1,0,0-1.581Z" transform="translate(0 -0.85)" fill="#fff"/>
        </g>
      </g>
      <g id="Сгруппировать_414" data-name="Сгруппировать 414" transform="translate(55.322 -4.198)">
        <g id="Сгруппировать_413" data-name="Сгруппировать 413" transform="translate(0 0)">
          <path id="Контур_350" data-name="Контур 350" d="M182.572,112.134l-4.805-4.742a.79.79,0,0,0-1.11,1.125l3.434,3.389h-9.2a.79.79,0,0,0,0,1.581h9.2l-3.434,3.389a.79.79,0,1,0,1.11,1.125l4.805-4.742a.79.79,0,0,0,0-1.125Z" transform="translate(-170.1 -107.165)" fill="#fff"/>
        </g>
      </g>
    </g>
  </g>
</svg>
