<svg xmlns="http://www.w3.org/2000/svg" width="24.913" height="21.897" viewBox="0 0 24.913 21.897">
  <g id="shopping-cart_1_" data-name="shopping-cart (1)" transform="translate(0 0)">
    <path id="Контур_76" data-name="Контур 76" d="M8.027,14.6H21.264a.73.73,0,0,0,.7-.529L24.885,3.85a.73.73,0,0,0-.7-.93H6.343L5.822.572A.73.73,0,0,0,5.109,0H.73a.73.73,0,0,0,0,1.46H4.524L7.159,13.319a2.189,2.189,0,0,0,.87,4.2H21.264a.73.73,0,0,0,0-1.46H8.029a.73.73,0,0,1,0-1.46ZM23.216,4.379l-2.5,8.759H8.614L6.668,4.379Zm0,0" fill="#ea2f55"/>
    <path id="Контур_77" data-name="Контур 77" d="M150,362.19a2.19,2.19,0,1,0,2.19-2.19A2.192,2.192,0,0,0,150,362.19Zm2.19-.73a.73.73,0,1,1-.73.73A.731.731,0,0,1,152.19,361.46Zm0,0" transform="translate(-142.701 -342.483)" fill="#ea2f55"/>
    <path id="Контур_78" data-name="Контур 78" d="M362,362.19a2.19,2.19,0,1,0,2.19-2.19A2.192,2.192,0,0,0,362,362.19Zm2.19-.73a.73.73,0,1,1-.73.73A.731.731,0,0,1,364.19,361.46Zm0,0" transform="translate(-344.386 -342.483)" fill="#ea2f55"/>
  </g>
</svg>
