<svg id="time" xmlns="http://www.w3.org/2000/svg" width="21.947" height="21.947" viewBox="0 0 21.947 21.947">
  <g id="Сгруппировать_408" data-name="Сгруппировать 408">
    <g id="Сгруппировать_407" data-name="Сгруппировать 407">
      <path id="Контур_347" data-name="Контур 347" d="M10.973,0A10.973,10.973,0,1,0,21.947,10.973,10.973,10.973,0,0,0,10.973,0Zm0,20.379a9.406,9.406,0,1,1,9.406-9.406A9.406,9.406,0,0,1,10.973,20.379Z" fill="#fff"/>
    </g>
  </g>
  <g id="Сгруппировать_410" data-name="Сгруппировать 410" transform="translate(3.919 3.919)">
    <g id="Сгруппировать_409" data-name="Сгруппировать 409">
      <path id="Контур_348" data-name="Контур 348" d="M92.387,85.333a.784.784,0,0,0-.784.784V91.6H86.117a.784.784,0,1,0,0,1.568h6.27a.784.784,0,0,0,.784-.784v-6.27A.784.784,0,0,0,92.387,85.333Z" transform="translate(-85.333 -85.333)" fill="#fff"/>
    </g>
  </g>
</svg>
