<svg id="video" xmlns="http://www.w3.org/2000/svg" width="26.464" height="21.871" viewBox="0 0 26.464 21.871">
  <path id="Контур_81" data-name="Контур 81" d="M23.919,57.992H2.545A2.721,2.721,0,0,0,0,60.86V76.995a2.721,2.721,0,0,0,2.545,2.868H23.919a2.721,2.721,0,0,0,2.545-2.868V60.86A2.721,2.721,0,0,0,23.919,57.992ZM2.545,59.426H23.919a1.361,1.361,0,0,1,1.272,1.434V73.947H9.1v-2.51H5.6v2.51H1.272V60.86A1.361,1.361,0,0,1,2.545,59.426Zm5.28,13.445V75.74H6.87V72.872Zm16.095,5.557H2.545a1.361,1.361,0,0,1-1.272-1.434V75.381H5.6v1.793H9.1V75.381H25.192v1.613A1.361,1.361,0,0,1,23.919,78.429Z" transform="translate(0 -57.992)" fill="#fff"/>
  <path id="Контур_82" data-name="Контур 82" d="M174.878,132.937a.649.649,0,0,0,.382.115.725.725,0,0,0,.382-.115l6.572-3.859a.726.726,0,0,0,0-1.3l-6.572-3.859a.688.688,0,0,0-.764,0,.726.726,0,0,0-.382.65v7.718A.8.8,0,0,0,174.878,132.937Zm1.146-7.03,4.279,2.522-4.279,2.522Z" transform="translate(-164.606 -119.483)" fill="#fff"/>
</svg>
